PathFileType	4	(X/Y/Z)	 s05c0303.trc
DataRate	CameraRate	NumFrames	NumMarkers	Units	OrigDataRate	OrigDataStartFrame	OrigNumFrames
200	200	4	48	mm	200	1	2000
Frame#	Time	racr			lacr			c7			jug			rlel			rdr			llel			ldr			s2			lic			ric			lasi			rasi			rpsi			lpsi			rgt			lgt			rth1			rth2			rth3			rth4			rlfc			rsh1			rsh2			rsh3			rsh4			rlmal			rcal			rtoe			rmt5			rmt1			lth1			lth2			lth4			lth3			llfc			lmfc			lsh1			lsh2			lsh3			lsh4			llmal			lcal			ltoe			lmt5			SBIKE			LBIKE			RBIKE			
		X1	Y1	Z1	X2	Y2	Z2	X3	Y3	Z3	X4	Y4	Z4	X5	Y5	Z5	X6	Y6	Z6	X7	Y7	Z7	X8	Y8	Z8	X9	Y9	Z9	X10	Y10	Z10	X11	Y11	Z11	X12	Y12	Z12	X13	Y13	Z13	X14	Y14	Z14	X15	Y15	Z15	X16	Y16	Z16	X17	Y17	Z17	X18	Y18	Z18	X19	Y19	Z19	X20	Y20	Z20	X21	Y21	Z21	X22	Y22	Z22	X23	Y23	Z23	X24	Y24	Z24	X25	Y25	Z25	X26	Y26	Z26	X27	Y27	Z27	X28	Y28	Z28	X29	Y29	Z29	X30	Y30	Z30	X31	Y31	Z31	X32	Y32	Z32	X33	Y33	Z33	X34	Y34	Z34	X35	Y35	Z35	X36	Y36	Z36	X37	Y37	Z37	X38	Y38	Z38	X39	Y39	Z39	X40	Y40	Z40	X41	Y41	Z41	X42	Y42	Z42	X43	Y43	Z43	X44	Y44	Z44	X45	Y45	Z45	X46	Y46	Z46	X47	Y47	Z47	X48	Y48	Z48	
1	0.0050	424.760874	1360.103516	-139.075545	425.825719	1375.650352	-430.466198	420.701679	1443.794907	-286.459770	385.295992	1288.049032	-285.874816	515.302390	1120.199044	-40.563130	688.866914	917.806572	-76.266129	499.035734	1119.062155	-514.956783	684.235457	920.826665	-445.776139	-112.605513	1159.846508	-265.548001	33.315693	1165.958552	-408.869462	43.838831	1189.290918	-130.139845	83.641383	1116.727763	-374.372689	79.006450	1126.016656	-155.839161	-78.910007	1205.632906	-225.145998	-76.240965	1207.358450	-313.446969	-7.209725	1061.202219	-92.185619	-38.147433	1065.267180	-435.411197	91.413856	998.495627	-76.902990	178.853704	980.172783	-68.947086	243.686169	920.211283	-70.728649	195.628309	1011.933204	-78.761981	376.310572	839.300292	-94.430867	318.926651	744.135886	-73.178089	313.531482	657.228826	-86.907011	266.559219	584.186510	-93.815888	341.335614	651.063503	-113.184628	230.118926	457.814537	-108.621017	161.157228	419.642120	-154.892696	456.791260	424.142256	-144.787810	357.408536	390.688013	-82.593175	NaN	NaN	NaN	44.504471	949.206070	-461.381932	115.679981	902.335273	-465.588374	144.767856	923.240026	-454.430610	153.849322	819.932106	-472.157006	233.478382	691.938023	-446.850900	224.422875	684.837649	-336.763068	140.640885	604.928609	-465.095658	101.357780	527.782372	-448.551447	26.514016	480.431052	-445.568039	125.809430	511.470025	-424.696125	-47.409531	386.358953	-430.488754	-122.644170	362.074777	-386.112393	154.079151	262.229560	-395.587312	42.808533	267.826460	-457.223873	-170.223744	899.208798	-267.635209	-43.308512	85.120666	-473.973554	-51.128323	79.828412	-76.420128	
2	0.0100	424.919093	1360.143732	-139.158496	425.863239	1375.660043	-430.541982	420.668710	1443.845955	-286.602414	385.422093	1288.067949	-285.933825	515.311854	1120.212912	-40.531203	688.858959	917.842814	-76.281735	499.065685	1119.057575	-515.010907	684.223026	920.779142	-445.733179	-112.576781	1159.866725	-265.533441	33.323380	1165.945780	-408.891605	43.912352	1189.264099	-130.154015	83.615580	1116.725458	-374.399366	79.043844	1125.999857	-155.840875	-78.860189	1205.664636	-225.136944	-76.213595	1207.361564	-313.459329	-7.146879	1061.191462	-92.199544	-38.168288	1065.282991	-435.415490	91.477803	998.478589	-76.939939	178.899699	980.146744	-68.974325	243.734519	920.183142	-70.773114	195.690152	1011.919136	-78.768835	376.327455	839.262619	-94.466814	318.965780	744.099407	-73.210548	313.538182	657.191895	-86.931223	266.566401	584.166524	-93.844907	341.359718	651.039205	-113.212066	230.101496	457.798564	-108.625063	161.151720	419.630241	-154.887154	456.787122	424.145389	-144.795584	357.395246	390.675705	-82.606155	NaN	NaN	NaN	44.504656	949.209754	-461.399478	115.676135	902.376044	-465.634235	144.776758	923.282409	-454.466901	153.880978	820.055354	-472.195252	233.513207	691.984728	-446.890374	224.493569	684.903610	-336.807623	140.671333	604.980980	-465.123270	101.401074	527.836225	-448.587128	26.544219	480.469116	-445.580272	125.845156	511.498181	-424.718361	-47.349554	386.407371	-430.510910	-122.596532	362.156409	-386.096599	154.087419	262.213527	-395.611633	42.809478	267.843187	-457.222352	-169.376981	900.191577	-267.344094	-43.334153	85.140492	-473.994628	-51.104303	79.829324	-76.426093	
3	0.0150	425.083059	1360.190765	-139.265877	425.920743	1375.658473	-430.638299	420.657085	1443.871183	-286.712271	385.519426	1288.112928	-286.030745	515.333418	1120.246652	-40.491599	688.852342	917.852247	-76.280650	499.058907	1119.059117	-515.054359	684.222865	920.788283	-445.743957	-112.547540	1159.875440	-265.525916	33.315570	1165.948236	-408.893676	43.968232	1189.250000	-130.167435	83.610864	1116.727057	-374.414307	79.087113	1126.008286	-155.869791	-78.827896	1205.660492	-225.132555	-76.396078	1206.917949	-313.116177	-7.085280	1061.192135	-92.213637	-38.174420	1065.286680	-435.414097	91.519051	998.500236	-76.959062	178.943800	980.140892	-68.983396	243.760476	920.161521	-70.811255	195.732559	1011.899821	-78.797801	376.367367	839.228145	-94.514063	318.991330	744.073768	-73.231670	313.532383	657.158281	-86.960063	266.560513	584.138509	-93.848153	341.359873	651.011737	-113.254376	230.093601	457.792577	-108.628114	161.117118	419.613883	-154.874213	456.772219	424.169755	-144.792458	357.392046	390.688620	-82.598888	NaN	NaN	NaN	44.502410	949.224250	-461.409609	115.680809	902.398554	-465.651537	144.781180	923.312567	-454.496441	153.871905	820.037199	-472.212449	233.559708	692.013211	-446.926829	224.561049	684.935051	-336.851101	140.706742	605.014647	-465.149726	101.451118	527.885237	-448.623945	26.589311	480.518443	-445.607873	125.881274	511.544040	-424.748428	-47.293643	386.424761	-430.513306	-122.553688	362.208522	-386.096909	154.104761	262.179724	-395.602612	42.824577	267.855232	-457.233366	-169.298504	900.269023	-267.483369	-43.342447	85.142735	-473.996193	-51.103550	79.857318	-76.432698	
4	0.0200	425.216683	1360.237746	-139.354498	425.953362	1375.677905	-430.723553	420.630025	1443.901218	-286.830335	385.625220	1288.108910	-286.110129	515.348185	1120.256642	-40.422419	688.783179	917.856666	-76.196412	499.072655	1119.037558	-515.094969	684.215750	920.759598	-445.735267	-112.520626	1159.884655	-265.510160	33.319788	1165.951118	-408.926637	43.958578	1189.171995	-131.024526	83.484191	1117.414225	-374.793055	79.117166	1125.988535	-155.880472	-78.794762	1205.663572	-225.118035	-76.196618	1207.372783	-313.447089	-7.040807	1061.195441	-92.216616	-38.195042	1065.288993	-435.425533	91.556889	998.491299	-76.967121	179.088954	980.012245	-69.118430	243.820468	920.135735	-70.845307	195.789574	1011.795459	-78.921925	376.399479	839.202684	-94.556481	319.021371	744.036455	-73.264038	312.480200	656.115711	-87.842143	266.566219	584.115555	-93.867544	341.885879	650.841566	-113.086844	229.769495	458.284551	-108.366368	161.110348	419.593130	-154.871961	456.757528	424.193753	-144.787037	357.379527	390.694208	-82.600905	NaN	NaN	NaN	44.499904	949.246157	-461.417440	115.850941	901.721271	-465.212378	144.548444	923.131277	-454.143521	153.896261	820.079856	-472.255239	233.599069	692.050080	-446.969003	224.607731	684.970231	-336.885759	140.748942	605.059195	-465.182440	101.486161	527.921074	-448.665901	26.647020	480.541875	-445.615895	125.079182	511.579749	-423.495186	-47.292575	386.567821	-430.592127	-122.501248	362.252952	-386.091800	154.119790	262.127845	-395.596661	42.850943	267.851163	-457.224799	-168.366708	901.455466	-268.405945	-43.330489	85.134779	-473.979727	-51.102835	79.841108	-76.429738	
